<svg xmlns="http://www.w3.org/2000/svg" width="362" height="212" viewBox="0 0 362 212">
  <defs>
    <linearGradient id="box-leaves-a" x1="50%" x2="50%" y1="0%" y2="100%">
      <stop offset="0%" stop-color="#AEE74E"/>
      <stop offset="100%" stop-color="#4A9924"/>
    </linearGradient>
    <linearGradient id="box-leaves-b" x1="50%" x2="50%" y1="0%" y2="100%">
      <stop offset="0%" stop-color="#B4ED50"/>
      <stop offset="100%" stop-color="#429321"/>
    </linearGradient>
  </defs>
  <g fill="none" fill-rule="evenodd">
    <rect width="362" height="212" fill="#F6F6F6" rx="5"/>
    <g transform="translate(96 98)">
      <path stroke="url(#box-leaves-a)" stroke-linecap="round" stroke-width="1.2" d="M13,51 C13,51 14.8,58.2151899 14.8,67.835443 C14.8,77.4556962 13,94.3287021 13,94.3287021"/>
      <g transform="translate(225.6 27.658)">
        <path stroke="url(#box-leaves-a)" stroke-linecap="round" stroke-width="1.2" d="M13,23.4493671 C13,23.4493671 14.8,30.664557 14.8,40.2848101 C14.8,49.9050633 13,66.7780691 13,66.7780691"/>
        <path fill="url(#box-leaves-b)" d="M13.0507204,23.8741255 C13.0543364,23.8881109 13.0562213,23.8952395 13.0562213,23.8952395 C13.0562213,23.8952395 13.0598469,23.892628 13.0669649,23.8874577 C13.0742229,23.8933983 13.0779227,23.896401 13.0779227,23.896401 C13.0779227,23.896401 13.0764087,23.8918082 13.0734197,23.8827636 C13.4651374,23.5975821 20.4407653,18.4657122 22.9345816,12.8645092 C25.5008169,7.10065038 25.3725171,1.44476775 22.6480161,0.231741745 C19.9235151,-0.981284259 15.6345259,2.70789464 13.0682906,8.47175344 C10.7506473,13.6772656 12.6094248,22.0603351 12.9912939,23.635628 C12.481686,22.107891 9.81751551,14.2078608 7.50783549,9.02023457 C4.94160021,3.25637577 7.04716341,-0.968652112 4.3226624,0.244373892 C1.59816138,1.4573999 1.46986165,7.11328253 4.03609693,12.8771413 C6.50531862,18.423104 12.5939052,23.4983255 13.0507204,23.8741255 Z"/>
        <path fill="url(#box-leaves-b)" d="M15.9946294,37.4121672 C15.9946294,37.4121672 20.4935349,35.8623275 22.5517002,33.320705 C24.6098656,30.7790825 25.234518,27.8734213 23.9469004,26.8307291 C22.6592828,25.788037 19.9469898,27.0031601 17.8888245,29.5447827 C15.8306591,32.0864052 15.9946294,37.4121672 15.9946294,37.4121672 Z" transform="rotate(11 20.305 31.934)"/>
        <path fill="url(#box-leaves-b)" d="M3.80486354,46.9748438 C3.80486354,46.9748438 8.30376902,45.4250042 10.3619344,42.8833816 C12.4200997,40.3417591 13.0447521,37.4360979 11.7571345,36.3934058 C10.4695169,35.3507136 7.75722394,36.5658368 5.69905859,39.1074593 C3.64089325,41.6490818 3.80486354,46.9748438 3.80486354,46.9748438 Z" transform="scale(-1 1) rotate(20 0 -4.524)"/>
        <path fill="url(#box-leaves-b)" d="M16.5446808,51.7046054 C16.5446808,51.7046054 20.9648627,50.1546769 22.9977971,47.6442119 C25.0307316,45.1337469 25.6602853,42.273876 24.4039447,41.2565114 C23.1476041,40.2391468 20.4811198,41.4495439 18.4481853,43.9600089 C16.4152508,46.4704739 16.5446808,51.7046054 16.5446808,51.7046054 Z" transform="rotate(27 20.8 46.297)"/>
        <path fill="url(#box-leaves-b)" d="M2.53618245,35.9346766 C2.53618245,35.9346766 8.05999623,34.1386025 10.5446939,31.0702564 C13.0293916,28.0019103 13.7341817,24.4541482 12.1188866,23.146108 C10.5035916,21.8380679 7.1798907,23.2650778 4.69519301,26.3334239 C2.21049531,29.4017701 2.53618245,35.9346766 2.53618245,35.9346766 Z" transform="scale(-1 1) rotate(13 0 -38.68)"/>
      </g>
      <g transform="translate(169.2 27.658)">
        <path stroke="url(#box-leaves-a)" stroke-linecap="round" stroke-width="1.2" d="M13,23.4493671 C13,23.4493671 14.8,30.664557 14.8,40.2848101 C14.8,49.9050633 13,66.7780691 13,66.7780691"/>
        <path fill="url(#box-leaves-b)" d="M13.0507204,23.8741255 C13.0543364,23.8881109 13.0562213,23.8952395 13.0562213,23.8952395 C13.0562213,23.8952395 13.0598469,23.892628 13.0669649,23.8874577 C13.0742229,23.8933983 13.0779227,23.896401 13.0779227,23.896401 C13.0779227,23.896401 13.0764087,23.8918082 13.0734197,23.8827636 C13.4651374,23.5975821 20.4407653,18.4657122 22.9345816,12.8645092 C25.5008169,7.10065038 25.3725171,1.44476775 22.6480161,0.231741745 C19.9235151,-0.981284259 15.6345259,2.70789464 13.0682906,8.47175344 C10.7506473,13.6772656 12.6094248,22.0603351 12.9912939,23.635628 C12.481686,22.107891 9.81751551,14.2078608 7.50783549,9.02023457 C4.94160021,3.25637577 7.04716341,-0.968652112 4.3226624,0.244373892 C1.59816138,1.4573999 1.46986165,7.11328253 4.03609693,12.8771413 C6.50531862,18.423104 12.5939052,23.4983255 13.0507204,23.8741255 Z"/>
        <path fill="url(#box-leaves-b)" d="M15.9946294,37.4121672 C15.9946294,37.4121672 20.4935349,35.8623275 22.5517002,33.320705 C24.6098656,30.7790825 25.234518,27.8734213 23.9469004,26.8307291 C22.6592828,25.788037 19.9469898,27.0031601 17.8888245,29.5447827 C15.8306591,32.0864052 15.9946294,37.4121672 15.9946294,37.4121672 Z" transform="rotate(11 20.305 31.934)"/>
        <path fill="url(#box-leaves-b)" d="M3.80486354,46.9748438 C3.80486354,46.9748438 8.30376902,45.4250042 10.3619344,42.8833816 C12.4200997,40.3417591 13.0447521,37.4360979 11.7571345,36.3934058 C10.4695169,35.3507136 7.75722394,36.5658368 5.69905859,39.1074593 C3.64089325,41.6490818 3.80486354,46.9748438 3.80486354,46.9748438 Z" transform="scale(-1 1) rotate(20 0 -4.524)"/>
        <path fill="url(#box-leaves-b)" d="M16.5446808,51.7046054 C16.5446808,51.7046054 20.9648627,50.1546769 22.9977971,47.6442119 C25.0307316,45.1337469 25.6602853,42.273876 24.4039447,41.2565114 C23.1476041,40.2391468 20.4811198,41.4495439 18.4481853,43.9600089 C16.4152508,46.4704739 16.5446808,51.7046054 16.5446808,51.7046054 Z" transform="rotate(27 20.8 46.297)"/>
        <path fill="url(#box-leaves-b)" d="M2.53618245,35.9346766 C2.53618245,35.9346766 8.05999623,34.1386025 10.5446939,31.0702564 C13.0293916,28.0019103 13.7341817,24.4541482 12.1188866,23.146108 C10.5035916,21.8380679 7.1798907,23.2650778 4.69519301,26.3334239 C2.21049531,29.4017701 2.53618245,35.9346766 2.53618245,35.9346766 Z" transform="scale(-1 1) rotate(13 0 -38.68)"/>
      </g>
      <g transform="translate(112.8 27.658)">
        <path stroke="url(#box-leaves-a)" stroke-linecap="round" stroke-width="1.2" d="M13,23.4493671 C13,23.4493671 14.8,30.664557 14.8,40.2848101 C14.8,49.9050633 13,66.7780691 13,66.7780691"/>
        <path fill="url(#box-leaves-b)" d="M13.0507204,23.8741255 C13.0543364,23.8881109 13.0562213,23.8952395 13.0562213,23.8952395 C13.0562213,23.8952395 13.0598469,23.892628 13.0669649,23.8874577 C13.0742229,23.8933983 13.0779227,23.896401 13.0779227,23.896401 C13.0779227,23.896401 13.0764087,23.8918082 13.0734197,23.8827636 C13.4651374,23.5975821 20.4407653,18.4657122 22.9345816,12.8645092 C25.5008169,7.10065038 25.3725171,1.44476775 22.6480161,0.231741745 C19.9235151,-0.981284259 15.6345259,2.70789464 13.0682906,8.47175344 C10.7506473,13.6772656 12.6094248,22.0603351 12.9912939,23.635628 C12.481686,22.107891 9.81751551,14.2078608 7.50783549,9.02023457 C4.94160021,3.25637577 7.04716341,-0.968652112 4.3226624,0.244373892 C1.59816138,1.4573999 1.46986165,7.11328253 4.03609693,12.8771413 C6.50531862,18.423104 12.5939052,23.4983255 13.0507204,23.8741255 Z"/>
        <path fill="url(#box-leaves-b)" d="M15.9946294,37.4121672 C15.9946294,37.4121672 20.4935349,35.8623275 22.5517002,33.320705 C24.6098656,30.7790825 25.234518,27.8734213 23.9469004,26.8307291 C22.6592828,25.788037 19.9469898,27.0031601 17.8888245,29.5447827 C15.8306591,32.0864052 15.9946294,37.4121672 15.9946294,37.4121672 Z" transform="rotate(11 20.305 31.934)"/>
        <path fill="url(#box-leaves-b)" d="M3.80486354,46.9748438 C3.80486354,46.9748438 8.30376902,45.4250042 10.3619344,42.8833816 C12.4200997,40.3417591 13.0447521,37.4360979 11.7571345,36.3934058 C10.4695169,35.3507136 7.75722394,36.5658368 5.69905859,39.1074593 C3.64089325,41.6490818 3.80486354,46.9748438 3.80486354,46.9748438 Z" transform="scale(-1 1) rotate(20 0 -4.524)"/>
        <path fill="url(#box-leaves-b)" d="M16.5446808,51.7046054 C16.5446808,51.7046054 20.9648627,50.1546769 22.9977971,47.6442119 C25.0307316,45.1337469 25.6602853,42.273876 24.4039447,41.2565114 C23.1476041,40.2391468 20.4811198,41.4495439 18.4481853,43.9600089 C16.4152508,46.4704739 16.5446808,51.7046054 16.5446808,51.7046054 Z" transform="rotate(27 20.8 46.297)"/>
        <path fill="url(#box-leaves-b)" d="M2.53618245,35.9346766 C2.53618245,35.9346766 8.05999623,34.1386025 10.5446939,31.0702564 C13.0293916,28.0019103 13.7341817,24.4541482 12.1188866,23.146108 C10.5035916,21.8380679 7.1798907,23.2650778 4.69519301,26.3334239 C2.21049531,29.4017701 2.53618245,35.9346766 2.53618245,35.9346766 Z" transform="scale(-1 1) rotate(13 0 -38.68)"/>
      </g>
      <g transform="translate(56.4 27.658)">
        <path stroke="url(#box-leaves-a)" stroke-linecap="round" stroke-width="1.2" d="M13,23.4493671 C13,23.4493671 14.8,30.664557 14.8,40.2848101 C14.8,49.9050633 13,66.7780691 13,66.7780691"/>
        <path fill="url(#box-leaves-b)" d="M13.0507204,23.8741255 C13.0543364,23.8881109 13.0562213,23.8952395 13.0562213,23.8952395 C13.0562213,23.8952395 13.0598469,23.892628 13.0669649,23.8874577 C13.0742229,23.8933983 13.0779227,23.896401 13.0779227,23.896401 C13.0779227,23.896401 13.0764087,23.8918082 13.0734197,23.8827636 C13.4651374,23.5975821 20.4407653,18.4657122 22.9345816,12.8645092 C25.5008169,7.10065038 25.3725171,1.44476775 22.6480161,0.231741745 C19.9235151,-0.981284259 15.6345259,2.70789464 13.0682906,8.47175344 C10.7506473,13.6772656 12.6094248,22.0603351 12.9912939,23.635628 C12.481686,22.107891 9.81751551,14.2078608 7.50783549,9.02023457 C4.94160021,3.25637577 7.04716341,-0.968652112 4.3226624,0.244373892 C1.59816138,1.4573999 1.46986165,7.11328253 4.03609693,12.8771413 C6.50531862,18.423104 12.5939052,23.4983255 13.0507204,23.8741255 Z"/>
        <path fill="url(#box-leaves-b)" d="M15.9946294,37.4121672 C15.9946294,37.4121672 20.4935349,35.8623275 22.5517002,33.320705 C24.6098656,30.7790825 25.234518,27.8734213 23.9469004,26.8307291 C22.6592828,25.788037 19.9469898,27.0031601 17.8888245,29.5447827 C15.8306591,32.0864052 15.9946294,37.4121672 15.9946294,37.4121672 Z" transform="rotate(11 20.305 31.934)"/>
        <path fill="url(#box-leaves-b)" d="M3.80486354,46.9748438 C3.80486354,46.9748438 8.30376902,45.4250042 10.3619344,42.8833816 C12.4200997,40.3417591 13.0447521,37.4360979 11.7571345,36.3934058 C10.4695169,35.3507136 7.75722394,36.5658368 5.69905859,39.1074593 C3.64089325,41.6490818 3.80486354,46.9748438 3.80486354,46.9748438 Z" transform="scale(-1 1) rotate(20 0 -4.524)"/>
        <path fill="url(#box-leaves-b)" d="M16.5446808,51.7046054 C16.5446808,51.7046054 20.9648627,50.1546769 22.9977971,47.6442119 C25.0307316,45.1337469 25.6602853,42.273876 24.4039447,41.2565114 C23.1476041,40.2391468 20.4811198,41.4495439 18.4481853,43.9600089 C16.4152508,46.4704739 16.5446808,51.7046054 16.5446808,51.7046054 Z" transform="rotate(27 20.8 46.297)"/>
        <path fill="url(#box-leaves-b)" d="M2.53618245,35.9346766 C2.53618245,35.9346766 8.05999623,34.1386025 10.5446939,31.0702564 C13.0293916,28.0019103 13.7341817,24.4541482 12.1188866,23.146108 C10.5035916,21.8380679 7.1798907,23.2650778 4.69519301,26.3334239 C2.21049531,29.4017701 2.53618245,35.9346766 2.53618245,35.9346766 Z" transform="scale(-1 1) rotate(13 0 -38.68)"/>
      </g>
      <g fill="url(#box-leaves-b)" transform="translate(0 27.658)">
        <path d="M13.0507204,23.8741255 C13.0543364,23.8881109 13.0562213,23.8952395 13.0562213,23.8952395 C13.0562213,23.8952395 13.0598469,23.892628 13.0669649,23.8874577 C13.0742229,23.8933983 13.0779227,23.896401 13.0779227,23.896401 C13.0779227,23.896401 13.0764087,23.8918082 13.0734197,23.8827636 C13.4651374,23.5975821 20.4407653,18.4657122 22.9345816,12.8645092 C25.5008169,7.10065038 25.3725171,1.44476775 22.6480161,0.231741745 C19.9235151,-0.981284259 15.6345259,2.70789464 13.0682906,8.47175344 C10.7506473,13.6772656 12.6094248,22.0603351 12.9912939,23.635628 C12.481686,22.107891 9.81751551,14.2078608 7.50783549,9.02023457 C4.94160021,3.25637577 7.04716341,-0.968652112 4.3226624,0.244373892 C1.59816138,1.4573999 1.46986165,7.11328253 4.03609693,12.8771413 C6.50531862,18.423104 12.5939052,23.4983255 13.0507204,23.8741255 Z"/>
        <path d="M15.9946294,37.4121672 C15.9946294,37.4121672 20.4935349,35.8623275 22.5517002,33.320705 C24.6098656,30.7790825 25.234518,27.8734213 23.9469004,26.8307291 C22.6592828,25.788037 19.9469898,27.0031601 17.8888245,29.5447827 C15.8306591,32.0864052 15.9946294,37.4121672 15.9946294,37.4121672 Z" transform="rotate(11 20.305 31.934)"/>
        <path d="M3.80486354,46.9748438 C3.80486354,46.9748438 8.30376902,45.4250042 10.3619344,42.8833816 C12.4200997,40.3417591 13.0447521,37.4360979 11.7571345,36.3934058 C10.4695169,35.3507136 7.75722394,36.5658368 5.69905859,39.1074593 C3.64089325,41.6490818 3.80486354,46.9748438 3.80486354,46.9748438 Z" transform="scale(-1 1) rotate(20 0 -4.524)"/>
        <path d="M16.5446808,51.7046054 C16.5446808,51.7046054 20.9648627,50.1546769 22.9977971,47.6442119 C25.0307316,45.1337469 25.6602853,42.273876 24.4039447,41.2565114 C23.1476041,40.2391468 20.4811198,41.4495439 18.4481853,43.9600089 C16.4152508,46.4704739 16.5446808,51.7046054 16.5446808,51.7046054 Z" transform="rotate(27 20.8 46.297)"/>
        <path d="M2.53618245,35.9346766 C2.53618245,35.9346766 8.05999623,34.1386025 10.5446939,31.0702564 C13.0293916,28.0019103 13.7341817,24.4541482 12.1188866,23.146108 C10.5035916,21.8380679 7.1798907,23.2650778 4.69519301,26.3334239 C2.21049531,29.4017701 2.53618245,35.9346766 2.53618245,35.9346766 Z" transform="scale(-1 1) rotate(13 0 -38.68)"/>
      </g>
      <g fill="url(#box-leaves-b)" transform="translate(32.2)">
        <path d="M178.85072 23.8741255C178.854336 23.8881109 178.856221 23.8952395 178.856221 23.8952395 178.856221 23.8952395 178.859847 23.892628 178.866965 23.8874577 178.874223 23.8933983 178.877923 23.896401 178.877923 23.896401 178.877923 23.896401 178.876409 23.8918082 178.87342 23.8827636 179.265137 23.5975821 186.240765 18.4657122 188.734582 12.8645092 191.300817 7.10065038 191.172517 1.44476775 188.448016.231741745 185.723515-.981284259 181.434526 2.70789464 178.868291 8.47175344 176.550647 13.6772656 178.409425 22.0603351 178.791294 23.635628 178.281686 22.107891 175.617516 14.2078608 173.307835 9.02023457 170.7416 3.25637577 172.847163-.968652112 170.122662.244373892 167.398161 1.4573999 167.269862 7.11328253 169.836097 12.8771413 172.305319 18.423104 178.393905 23.4983255 178.85072 23.8741255zM122.45072 23.8741255C122.454336 23.8881109 122.456221 23.8952395 122.456221 23.8952395 122.456221 23.8952395 122.459847 23.892628 122.466965 23.8874577 122.474223 23.8933983 122.477923 23.896401 122.477923 23.896401 122.477923 23.896401 122.476409 23.8918082 122.47342 23.8827636 122.865137 23.5975821 129.840765 18.4657122 132.334582 12.8645092 134.900817 7.10065038 134.772517 1.44476775 132.048016.231741745 129.323515-.981284259 125.034526 2.70789464 122.468291 8.47175344 120.150647 13.6772656 122.009425 22.0603351 122.391294 23.635628 121.881686 22.107891 119.217516 14.2078608 116.907835 9.02023457 114.3416 3.25637577 116.447163-.968652112 113.722662.244373892 110.998161 1.4573999 110.869862 7.11328253 113.436097 12.8771413 115.905319 18.423104 121.993905 23.4983255 122.45072 23.8741255zM66.0507204 23.8741255C66.0543364 23.8881109 66.0562213 23.8952395 66.0562213 23.8952395 66.0562213 23.8952395 66.0598469 23.892628 66.0669649 23.8874577 66.0742229 23.8933983 66.0779227 23.896401 66.0779227 23.896401 66.0779227 23.896401 66.0764087 23.8918082 66.0734197 23.8827636 66.4651374 23.5975821 73.4407653 18.4657122 75.9345816 12.8645092 78.5008169 7.10065038 78.3725171 1.44476775 75.6480161.231741745 72.9235151-.981284259 68.6345259 2.70789464 66.0682906 8.47175344 63.7506473 13.6772656 65.6094248 22.0603351 65.9912939 23.635628 65.481686 22.107891 62.8175155 14.2078608 60.5078355 9.02023457 57.9416002 3.25637577 60.0471634-.968652112 57.3226624.244373892 54.5981614 1.4573999 54.4698617 7.11328253 57.0360969 12.8771413 59.5053186 18.423104 65.5939052 23.4983255 66.0507204 23.8741255zM10.8507204 23.8741255C10.8543364 23.8881109 10.8562213 23.8952395 10.8562213 23.8952395 10.8562213 23.8952395 10.8598469 23.892628 10.8669649 23.8874577 10.8742229 23.8933983 10.8779227 23.896401 10.8779227 23.896401 10.8779227 23.896401 10.8764087 23.8918082 10.8734197 23.8827636 11.2651374 23.5975821 18.2407653 18.4657122 20.7345816 12.8645092 23.3008169 7.10065038 23.1725171 1.44476775 20.4480161.231741745 17.7235151-.981284259 13.4345259 2.70789464 10.8682906 8.47175344 8.5506473 13.6772656 10.4094248 22.0603351 10.7912939 23.635628 10.281686 22.107891 7.61751551 14.2078608 5.30783549 9.02023457 2.74160021 3.25637577 4.84716341-.968652112 2.1226624.244373892-.601838617 1.4573999-.730138347 7.11328253 1.83609693 12.8771413 4.30531862 18.423104 10.3939052 23.4983255 10.8507204 23.8741255z"/>
      </g>
    </g>
  </g>
</svg>
