<svg xmlns="http://www.w3.org/2000/svg" xmlns:xlink="http://www.w3.org/1999/xlink" width="362" height="212" viewBox="0 0 362 212">
  <defs>
    <rect id="box-1-a" width="362" height="212" rx="5"/>
    <path id="box-1-d" d="M43.9614612,54.0184548 C23.7527548,51.0090726 12.0022614,56.8795101 13.9101761,81.8449142 C15.8419978,107.123145 42.7442336,87.3820335 49.1518596,103.621552 C52.7968341,112.859392 28.7002989,123.772172 38.6656913,141.397212 C43.6616923,150.233264 72.8274775,162.320909 80.0801079,154.623117 C82.0638151,152.517651 83.7843882,150.088722 84.9577908,147.443632 C86.6858842,143.548154 83.9638347,133.156308 87.8742033,131.495647 C102.231926,125.398189 103.07382,141.897019 107.153797,144.833838 C117.623623,152.37015 136.121803,150.428354 144.5437,140.332199 C151.055416,132.525967 152.085227,116.573422 143.673535,109.647555 C139.668773,106.350186 126.358548,98.4048505 131.382454,85.3291762 C133.557867,79.6672505 158.35757,79.1330424 152.596126,57.0365606 C145.067942,28.1642186 120.603033,47.5666741 108.805751,43.6983702 C103.385985,41.9212403 106.362763,32.4589586 104.013045,27.257009 C102.542729,24.0019332 100.056514,12.3638306 85.2875018,12.3638306 C52.9626347,12.3638306 60.2432969,41.1569235 65.1139493,57.7272883 C65.1139493,57.7272883 52.8674454,55.3446906 43.9614612,54.0184548 Z"/>
    <filter id="box-1-c" width="112.9%" height="112.5%" x="-6.5%" y="-4.9%" filterUnits="objectBoundingBox">
      <feMorphology in="SourceAlpha" operator="dilate" radius=".52" result="shadowSpreadOuter1"/>
      <feOffset dy="2" in="shadowSpreadOuter1" result="shadowOffsetOuter1"/>
      <feMorphology in="SourceAlpha" radius="1" result="shadowInner"/>
      <feOffset dy="2" in="shadowInner" result="shadowInner"/>
      <feComposite in="shadowOffsetOuter1" in2="shadowInner" operator="out" result="shadowOffsetOuter1"/>
      <feGaussianBlur in="shadowOffsetOuter1" result="shadowBlurOuter1" stdDeviation="2.5"/>
      <feColorMatrix in="shadowBlurOuter1" values="0 0 0 0 0   0 0 0 0 0   0 0 0 0 0  0 0 0 0.5 0"/>
    </filter>
    <path id="box-1-f" d="M41.2414457,53.1446609 C19.8610314,49.9607937 7.42924028,56.1716013 9.44777659,82.5845082 C11.491606,109.328379 39.9536428,88.4426715 46.7327852,105.623763 C50.5890965,115.397217 25.0954358,126.942723 35.6386251,145.589669 C40.924296,154.938038 71.7811236,167.726529 79.4542641,159.582416 C81.5529873,157.354875 83.3733198,154.785116 84.6147567,151.986662 C86.4430456,147.865323 83.5631706,136.870955 87.7002637,135.114008 C102.890452,128.663017 103.78116,146.118455 108.097695,149.225552 C119.174565,157.198821 138.745276,155.14444 147.655478,144.462906 C154.544745,136.204066 155.634265,119.326587 146.734861,111.999156 C142.4979,108.510604 128.415944,100.104595 133.731139,86.2707889 C136.032682,80.2805827 162.270281,79.715401 156.174786,56.3377576 C148.210115,25.7913871 122.326723,46.3188037 109.84543,42.2262143 C104.111424,40.3460458 107.260796,30.3351376 104.774841,24.8315772 C103.219276,21.3877709 100.588909,9.07488714 84.9635844,9.07488714 C50.7645103,9.07488714 58.4673079,39.5374136 63.6203624,57.0685339 C63.6203624,57.0685339 50.6638019,54.5477924 41.2414457,53.1446609 Z"/>
    <filter id="box-1-e" width="111.5%" height="111.1%" x="-5.7%" y="-4.2%" filterUnits="objectBoundingBox">
      <feOffset dy="2" in="SourceAlpha" result="shadowOffsetOuter1"/>
      <feGaussianBlur in="shadowOffsetOuter1" result="shadowBlurOuter1" stdDeviation="2.5"/>
      <feColorMatrix in="shadowBlurOuter1" values="0 0 0 0 0   0 0 0 0 0   0 0 0 0 0  0 0 0 0.5 0"/>
    </filter>
    <path id="box-1-h" d="M57.1808554,65.4950581 C43.9297843,63.5217731 36.2248565,67.3710836 37.4758972,83.7411736 C38.7426139,100.316387 56.3827058,87.3719236 60.5842567,98.0203543 C62.9743065,104.077708 47.1739434,111.233338 53.7083608,122.79027 C56.9842935,128.584166 76.1086197,136.510169 80.8642492,131.462642 C82.1649878,130.082064 83.2931865,128.489389 84.0625995,126.754974 C85.1957294,124.200666 83.4108516,117.386619 85.9749233,116.297705 C95.3894401,112.299535 95.9414791,123.117999 98.616765,125.043704 C105.481945,129.985346 117.611405,128.71209 123.133736,122.091929 C127.403539,116.973297 128.078798,106.513038 122.563159,101.971671 C119.937192,99.8095498 111.209531,94.599706 114.503762,86.0258425 C115.930204,82.3132556 132.191642,81.9629694 128.4138,67.4740633 C123.477487,48.5421511 107.435577,61.2645546 99.6999693,58.7280652 C96.1461689,57.5627816 98.0980749,51.3582593 96.5573394,47.9472838 C95.5932372,45.8128948 93.9629981,38.1816629 84.2787946,38.1816629 C63.0830238,38.1816629 67.8570341,57.0616106 71.0507744,67.9269811 C71.0507744,67.9269811 63.0206071,66.3646855 57.1808554,65.4950581 Z"/>
    <filter id="box-1-g" width="121.4%" height="120.7%" x="-10.7%" y="-8.2%" filterUnits="objectBoundingBox">
      <feMorphology in="SourceAlpha" operator="dilate" radius="1.31" result="shadowSpreadOuter1"/>
      <feOffset dy="2" in="shadowSpreadOuter1" result="shadowOffsetOuter1"/>
      <feMorphology in="SourceAlpha" radius="1.31" result="shadowInner"/>
      <feOffset dy="2" in="shadowInner" result="shadowInner"/>
      <feComposite in="shadowOffsetOuter1" in2="shadowInner" operator="out" result="shadowOffsetOuter1"/>
      <feGaussianBlur in="shadowOffsetOuter1" result="shadowBlurOuter1" stdDeviation="2.5"/>
      <feColorMatrix in="shadowBlurOuter1" values="0 0 0 0 0   0 0 0 0 0   0 0 0 0 0  0 0 0 0.5 0"/>
    </filter>
    <path id="box-1-j" d="M23.863618,16.7961748 C23.863618,16.7961748 22.1863027,13.7402868 17.8421963,15.8150327 C17.7533439,15.8574686 15.0904871,18.9236727 18.7342843,20.651468 C20.9980333,21.7248798 12.9117798,24.4163404 16.1520127,26.8569829 C20.860393,30.4034788 22.3736773,26.3032827 23.3369755,26.9867175 C24.4501161,27.7764617 23.6051668,29.7158812 24.6150014,30.6342854 C25.6395343,31.5660572 30.1769255,32.1043355 31.00588,31.616669 C33.3906646,30.2137217 30.8990884,26.4033361 31.9670214,25.4508994 C33.6360076,23.9624132 33.9541082,24.2990359 37.145049,24.2990359 C39.6381734,24.2990359 39.7569312,18.4039767 38.4875006,17.9637864 C37.2180699,17.5235962 34.9325156,18.2929702 32.9259154,16.7961748 C32.3161816,16.3413523 32.9259154,13.3563323 30.0649653,12.6806623 C25.2051024,11.5329096 27.7478878,17.5798319 23.863618,16.7961748 Z"/>
    <filter id="box-1-i" width="182.1%" height="201.8%" x="-41%" y="-40.5%" filterUnits="objectBoundingBox">
      <feMorphology in="SourceAlpha" operator="dilate" radius="1.31" result="shadowSpreadOuter1"/>
      <feOffset dy="2" in="shadowSpreadOuter1" result="shadowOffsetOuter1"/>
      <feMorphology in="SourceAlpha" radius="1.31" result="shadowInner"/>
      <feOffset dy="2" in="shadowInner" result="shadowInner"/>
      <feComposite in="shadowOffsetOuter1" in2="shadowInner" operator="out" result="shadowOffsetOuter1"/>
      <feGaussianBlur in="shadowOffsetOuter1" result="shadowBlurOuter1" stdDeviation="2.5"/>
      <feColorMatrix in="shadowBlurOuter1" values="0 0 0 0 0   0 0 0 0 0   0 0 0 0 0  0 0 0 0.5 0"/>
    </filter>
    <path id="box-1-l" d="M43.9614612,54.0184548 C23.7527548,51.0090726 12.0022614,56.8795101 13.9101761,81.8449142 C15.8419978,107.123145 42.7442336,87.3820335 49.1518596,103.621552 C52.7968341,112.859392 28.7002989,123.772172 38.6656913,141.397212 C43.6616923,150.233264 72.8274775,162.320909 80.0801079,154.623117 C82.0638151,152.517651 83.7843882,150.088722 84.9577908,147.443632 C86.6858842,143.548154 83.9638347,133.156308 87.8742033,131.495647 C102.231926,125.398189 103.07382,141.897019 107.153797,144.833838 C117.623623,152.37015 136.121803,150.428354 144.5437,140.332199 C151.055416,132.525967 152.085227,116.573422 143.673535,109.647555 C139.668773,106.350186 126.358548,98.4048505 131.382454,85.3291762 C133.557867,79.6672505 158.35757,79.1330424 152.596126,57.0365606 C145.067942,28.1642186 120.603033,47.5666741 108.805751,43.6983702 C103.385985,41.9212403 106.362763,32.4589586 104.013045,27.257009 C102.542729,24.0019332 100.056514,12.3638306 85.2875018,12.3638306 C52.9626347,12.3638306 60.2432969,41.1569235 65.1139493,57.7272883 C65.1139493,57.7272883 52.8674454,55.3446906 43.9614612,54.0184548 Z"/>
    <filter id="box-1-k" width="112.9%" height="112.5%" x="-6.5%" y="-4.9%" filterUnits="objectBoundingBox">
      <feMorphology in="SourceAlpha" operator="dilate" radius=".52" result="shadowSpreadOuter1"/>
      <feOffset dy="2" in="shadowSpreadOuter1" result="shadowOffsetOuter1"/>
      <feMorphology in="SourceAlpha" radius="1" result="shadowInner"/>
      <feOffset dy="2" in="shadowInner" result="shadowInner"/>
      <feComposite in="shadowOffsetOuter1" in2="shadowInner" operator="out" result="shadowOffsetOuter1"/>
      <feGaussianBlur in="shadowOffsetOuter1" result="shadowBlurOuter1" stdDeviation="2.5"/>
      <feColorMatrix in="shadowBlurOuter1" values="0 0 0 0 0   0 0 0 0 0   0 0 0 0 0  0 0 0 0.5 0"/>
    </filter>
    <path id="box-1-n" d="M41.2414457,53.1446609 C19.8610314,49.9607937 7.42924028,56.1716013 9.44777659,82.5845082 C11.491606,109.328379 39.9536428,88.4426715 46.7327852,105.623763 C50.5890965,115.397217 25.0954358,126.942723 35.6386251,145.589669 C40.924296,154.938038 71.7811236,167.726529 79.4542641,159.582416 C81.5529873,157.354875 83.3733198,154.785116 84.6147567,151.986662 C86.4430456,147.865323 83.5631706,136.870955 87.7002637,135.114008 C102.890452,128.663017 103.78116,146.118455 108.097695,149.225552 C119.174565,157.198821 138.745276,155.14444 147.655478,144.462906 C154.544745,136.204066 155.634265,119.326587 146.734861,111.999156 C142.4979,108.510604 128.415944,100.104595 133.731139,86.2707889 C136.032682,80.2805827 162.270281,79.715401 156.174786,56.3377576 C148.210115,25.7913871 122.326723,46.3188037 109.84543,42.2262143 C104.111424,40.3460458 107.260796,30.3351376 104.774841,24.8315772 C103.219276,21.3877709 100.588909,9.07488714 84.9635844,9.07488714 C50.7645103,9.07488714 58.4673079,39.5374136 63.6203624,57.0685339 C63.6203624,57.0685339 50.6638019,54.5477924 41.2414457,53.1446609 Z"/>
    <filter id="box-1-m" width="111.5%" height="111.1%" x="-5.7%" y="-4.2%" filterUnits="objectBoundingBox">
      <feOffset dy="2" in="SourceAlpha" result="shadowOffsetOuter1"/>
      <feGaussianBlur in="shadowOffsetOuter1" result="shadowBlurOuter1" stdDeviation="2.5"/>
      <feColorMatrix in="shadowBlurOuter1" values="0 0 0 0 0   0 0 0 0 0   0 0 0 0 0  0 0 0 0.5 0"/>
    </filter>
    <path id="box-1-p" d="M57.1808554,65.4950581 C43.9297843,63.5217731 36.2248565,67.3710836 37.4758972,83.7411736 C38.7426139,100.316387 56.3827058,87.3719236 60.5842567,98.0203543 C62.9743065,104.077708 47.1739434,111.233338 53.7083608,122.79027 C56.9842935,128.584166 76.1086197,136.510169 80.8642492,131.462642 C82.1649878,130.082064 83.2931865,128.489389 84.0625995,126.754974 C85.1957294,124.200666 83.4108516,117.386619 85.9749233,116.297705 C95.3894401,112.299535 95.9414791,123.117999 98.616765,125.043704 C105.481945,129.985346 117.611405,128.71209 123.133736,122.091929 C127.403539,116.973297 128.078798,106.513038 122.563159,101.971671 C119.937192,99.8095498 111.209531,94.599706 114.503762,86.0258425 C115.930204,82.3132556 132.191642,81.9629694 128.4138,67.4740633 C123.477487,48.5421511 107.435577,61.2645546 99.6999693,58.7280652 C96.1461689,57.5627816 98.0980749,51.3582593 96.5573394,47.9472838 C95.5932372,45.8128948 93.9629981,38.1816629 84.2787946,38.1816629 C63.0830238,38.1816629 67.8570341,57.0616106 71.0507744,67.9269811 C71.0507744,67.9269811 63.0206071,66.3646855 57.1808554,65.4950581 Z"/>
    <filter id="box-1-o" width="121.4%" height="120.7%" x="-10.7%" y="-8.2%" filterUnits="objectBoundingBox">
      <feMorphology in="SourceAlpha" operator="dilate" radius="1.31" result="shadowSpreadOuter1"/>
      <feOffset dy="2" in="shadowSpreadOuter1" result="shadowOffsetOuter1"/>
      <feMorphology in="SourceAlpha" radius="1.31" result="shadowInner"/>
      <feOffset dy="2" in="shadowInner" result="shadowInner"/>
      <feComposite in="shadowOffsetOuter1" in2="shadowInner" operator="out" result="shadowOffsetOuter1"/>
      <feGaussianBlur in="shadowOffsetOuter1" result="shadowBlurOuter1" stdDeviation="2.5"/>
      <feColorMatrix in="shadowBlurOuter1" values="0 0 0 0 0   0 0 0 0 0   0 0 0 0 0  0 0 0 0.5 0"/>
    </filter>
  </defs>
  <g fill="none" fill-rule="evenodd">
    <mask id="box-1-b" fill="#fff">
      <use xlink:href="#box-1-a"/>
    </mask>
    <use fill="#F6F6F6" xlink:href="#box-1-a"/>
    <g mask="url(#box-1-b)">
      <g transform="rotate(-25 25.34 25.393)">
        <use fill="#000" filter="url(#box-1-c)" xlink:href="#box-1-d"/>
        <use stroke="#000" stroke-width="1.04" xlink:href="#box-1-d"/>
        <g opacity=".488" transform="rotate(-7 83.163 85.627)">
          <use fill="#000" filter="url(#box-1-e)" xlink:href="#box-1-f"/>
          <use fill="#31BEF5" xlink:href="#box-1-f"/>
        </g>
        <path stroke="#000" stroke-width="1.747" d="M50.1611056,60.0559171 C33.3298546,57.5494891 23.5432063,62.4388079 25.1322536,83.2317757 C26.7412124,104.285288 49.1473117,87.8434833 54.4840393,101.368911 C57.5198339,109.062844 37.450522,118.151784 45.750411,132.831174 C49.9114367,140.190467 74.2027812,150.25792 80.2432888,143.84665 C81.8954615,142.093068 83.3284774,140.070083 84.3057707,137.867063 C85.7450501,134.622631 83.4779332,125.967562 86.7347669,124.584445 C98.6929018,119.506047 99.3940909,133.247449 102.792187,135.693441 C111.512204,141.970218 126.918806,140.352953 133.933163,131.944155 C139.356583,125.442568 140.214284,112.156152 133.208428,106.387797 C129.872976,103.641513 118.787272,97.0240709 122.971539,86.1337174 C124.783378,81.4180622 145.438338,80.9731356 140.639797,62.5696107 C134.369788,38.5226666 113.993669,54.6824143 104.168052,51.4606152 C99.6540839,49.9804947 102.133357,42.0996321 100.176345,37.7670778 C98.9517609,35.0560186 96.8810632,25.3629773 84.5803775,25.3629773 C57.6579244,25.3629773 63.7217788,49.3439172 67.7784053,63.144898 C67.7784053,63.144898 57.578644,61.1605008 50.1611056,60.0559171 Z"/>
        <use fill="#000" filter="url(#box-1-g)" xlink:href="#box-1-h"/>
        <use stroke="#000" stroke-width="2.621" xlink:href="#box-1-h"/>
        <g transform="rotate(-20 237.305 -113.78)">
          <path stroke="#000" stroke-width="1.747" d="M19.4682429,9.9815259 C19.4682429,9.9815259 15.6629704,3.04872923 5.80763337,7.7556399 C5.60605678,7.85191291 -0.435082512,14.8081134 7.83148522,18.7279081 C12.9671811,21.1631236 -5.3778471,27.2691554 1.97316718,32.8061639 C12.6549211,40.8519873 16.0880613,31.5500017 18.2734655,33.1004888 C20.7988127,34.8921565 18.8819027,39.2920564 21.1728826,41.375611 C23.4972082,43.4894923 33.7910444,44.7106673 35.6716674,43.6043137 C41.0819529,40.4214915 35.4293926,31.7769899 37.8521786,29.6162268 C41.6385549,26.239345 42.3602198,27.0030303 49.5994064,27.0030303 C55.2554791,27.0030303 55.5249013,13.6290953 52.644984,12.6304497 C49.7650667,11.631804 44.5799017,13.3772585 40.0275911,9.9815259 C38.6443072,8.94968449 40.0275911,2.17766374 33.5370438,0.644792622 C22.5116261,-1.95907782 28.2803633,11.7593842 19.4682429,9.9815259 Z"/>
          <path stroke="#000" stroke-width="1.04" d="M21.8099988,13.6122158 C21.8099988,13.6122158 19.1384535,8.74494797 12.2193748,12.0495011 C12.0778551,12.117091 7.83658793,17.0007898 13.6402486,19.7527371 C17.2458365,21.4624146 4.3664502,25.7492405 9.52733366,29.6365756 C17.0266099,35.2852596 19.4368946,28.7546691 20.9711885,29.8432105 C22.7441441,31.1010761 21.3983504,34.190088 23.0067652,35.652877 C24.6385908,37.1369572 31.865524,37.9943004 33.185842,37.2175692 C36.9842094,34.9830239 33.0157495,28.9140294 34.7167007,27.3970351 C37.3749797,25.0262475 37.8816347,25.5624036 42.964008,25.5624036 C46.9349337,25.5624036 47.1240854,16.1730435 45.1021988,15.4719302 C43.0803122,14.7708169 39.4399937,15.9962379 36.2439798,13.6122158 C35.2728258,12.887797 36.2439798,8.13340413 31.6871993,7.0572303 C23.946649,5.22914626 27.9966725,14.8603864 21.8099988,13.6122158 Z"/>
          <use fill="#000" filter="url(#box-1-i)" xlink:href="#box-1-j"/>
          <use stroke="#000" stroke-width="2.621" xlink:href="#box-1-j"/>
        </g>
        <g transform="translate(37.417 38.327)">
          <path fill="#D8D8D8" stroke="#000" stroke-linecap="square" stroke-width="1.04" d="M45.6836638 25.6964321L39.5925086 1.30659824M47.4239938 24.8253666L46.5538288.435532747M50.9046539 25.6964321L56.9958091 5.66192572M55.2554791 29.1806941L63.9571293 19.5989736M57.8659741 31.7938906L78.7499347 19.5989736M71.7886145 30.9228251L83.9709249 20.4700391M64.8272943 64.0233139L66.5676244 90.1552787M48.2941589 65.7654449L47.4239938 77.9603618M56.9958091 67.5075759L63.9571293 88.4131477M52.644984 68.3786414L50.0344889 77.0892963M31.7610234 66.6365104L16.098053 75.3471653M24.7997032 40.5045455L9.13673276 28.3096286M27.4101983 38.7624145L21.3190431 28.3096286M43.0731687 27.4385631L30.8908584 16.1147117M27.4101983 50.9573315L1.30524754 50.086266M30.0206934 50.9573315L15.2278879 54.4415934M30.0206934 54.4415934L20.4488781 56.1837244M30.8908584 37.0202835L26.5400333 28.3096286M42.2030037 30.0517596L33.5013535 24.8253666M70.0482845 44.859873L77.0096047 49.2152005M74.3991096 41.375611L81.3604298 44.859873M53.515149 26.5674976L60.4764692 16.1147117M34.3715185 30.0517596L40.4626737 37.0202835M26.5400333 64.0233139L20.4488781 65.7654449"/>
          <ellipse cx="49.164" cy="48.344" fill="#000" rx="3.916" ry="2.178"/>
          <path stroke="#000" stroke-linecap="square" stroke-width="1.04" d="M72.6587796 33.5360216L90.0620801 26.5674976M73.5289446 36.149218L90.9322451 31.7938906M74.3991096 38.7624145L86.58142 40.5045455M66.5676244 46.602004L87.451585 76.2182308M64.8272943 47.4730695L84.8410899 82.3156893M63.0869643 48.344135L77.8797697 86.6710167M46.5538288 63.1522484L33.5013535 93.6395407M45.6836638 61.4101174L25.6698682 90.1552787M42.2030037 62.2811829L18.708548 85.7999513M24.7997032 49.2152005L.435082512 42.2466765M23.0593732 46.602004L.435082512 37.891349M23.0593732 43.117742L2.17541256 33.5360216M43.9433338 25.6964321L35.2416835 3.91979473"/>
        </g>
      </g>
    </g>
    <g mask="url(#box-1-b)">
      <g transform="rotate(-57 315.003 11.916)">
        <use fill="#000" filter="url(#box-1-k)" xlink:href="#box-1-l"/>
        <use stroke="#000" stroke-width="1.04" xlink:href="#box-1-l"/>
        <g opacity=".488" transform="rotate(-7 83.163 85.627)">
          <use fill="#000" filter="url(#box-1-m)" xlink:href="#box-1-n"/>
          <use fill="#31BEF5" xlink:href="#box-1-n"/>
        </g>
        <path stroke="#000" stroke-width="1.747" d="M50.1611056,60.0559171 C33.3298546,57.5494891 23.5432063,62.4388079 25.1322536,83.2317757 C26.7412124,104.285288 49.1473117,87.8434833 54.4840393,101.368911 C57.5198339,109.062844 37.450522,118.151784 45.750411,132.831174 C49.9114367,140.190467 74.2027812,150.25792 80.2432888,143.84665 C81.8954615,142.093068 83.3284774,140.070083 84.3057707,137.867063 C85.7450501,134.622631 83.4779332,125.967562 86.7347669,124.584445 C98.6929018,119.506047 99.3940909,133.247449 102.792187,135.693441 C111.512204,141.970218 126.918806,140.352953 133.933163,131.944155 C139.356583,125.442568 140.214284,112.156152 133.208428,106.387797 C129.872976,103.641513 118.787272,97.0240709 122.971539,86.1337174 C124.783378,81.4180622 145.438338,80.9731356 140.639797,62.5696107 C134.369788,38.5226666 113.993669,54.6824143 104.168052,51.4606152 C99.6540839,49.9804947 102.133357,42.0996321 100.176345,37.7670778 C98.9517609,35.0560186 96.8810632,25.3629773 84.5803775,25.3629773 C57.6579244,25.3629773 63.7217788,49.3439172 67.7784053,63.144898 C67.7784053,63.144898 57.578644,61.1605008 50.1611056,60.0559171 Z"/>
        <use fill="#000" filter="url(#box-1-o)" xlink:href="#box-1-p"/>
        <use stroke="#000" stroke-width="2.621" xlink:href="#box-1-p"/>
        <g stroke="#000" stroke-linecap="square" stroke-width="1.04" transform="translate(37.417 38.327)">
          <path fill="#D8D8D8" d="M57.8659741 31.7938906L78.7499347 19.5989736M71.7886145 30.9228251L83.9709249 20.4700391"/>
          <path d="M72.6587796 33.5360216L90.0620801 26.5674976M73.5289446 36.149218L90.9322451 31.7938906M74.3991096 38.7624145L86.58142 40.5045455M66.5676244 46.602004L87.451585 76.2182308"/>
        </g>
      </g>
    </g>
  </g>
</svg>
