<svg xmlns="http://www.w3.org/2000/svg" xmlns:xlink="http://www.w3.org/1999/xlink" width="362" height="212" viewBox="0 0 362 212">
  <defs>
    <rect id="box-trees-a" width="362" height="212" rx="5"/>
    <path id="box-trees-c" d="M26.5757098,18.9417178 C69.9290064,-7.01834844 135.63933,-5.31253526 178.961,20.6285926 C209.947946,46.0913396 210.85455,91.8211581 182.216825,114.21797 C143.554213,144.454982 42.7890055,133.420605 21.751996,119.296737 C-4.97069181,101.194315 -10.3811988,38.4366334 26.5757098,18.9417178 Z"/>
    <path id="box-trees-e" d="M13.3533123,9.4708589 C35.1367421,-3.50917422 68.153752,-2.65626763 89.9212904,10.3142963 C105.491086,23.0456698 105.946621,45.910579 91.5572226,57.1089848 C72.1306884,72.2274908 21.4998944,66.7103023 10.9295743,59.6483685 C-2.49758899,50.5971577 -5.21616887,19.2183167 13.3533123,9.4708589 Z"/>
  </defs>
  <g fill="none" fill-rule="evenodd">
    <mask id="box-trees-b" fill="#fff">
      <use xlink:href="#box-trees-a"/>
    </mask>
    <use fill="#F6F6F6" xlink:href="#box-trees-a"/>
    <g mask="url(#box-trees-b)">
      <g transform="translate(-22 35)">
        <g>
          <mask id="box-trees-d" fill="#fff">
            <use xlink:href="#box-trees-c"/>
          </mask>
          <use fill="#082248" opacity=".451" xlink:href="#box-trees-c"/>
          <g stroke="#082248" stroke-width=".64" mask="url(#box-trees-d)">
            <g transform="translate(-8.965 -224.97)">
              <path d="M109.184543 351.150307L191.473186 339.785276M109.504732 340.076687C111.105678 340.076687 193.074132 339.202454 193.074132 339.202454M109.824921 326.088957L204.921136 328.711656M109.824921 312.392638L216.44795 324.631902M109.824921 303.067485L212.605678 294.325153M109.824921 288.496933L215.167192 289.371166M109.824921 278.006135L214.206625 278.006135M109.824921 268.680982C111.425868 268.680982 215.807571 275.092025 215.807571 275.092025M109.824921 261.978528L214.847003 254.110429M109.824921 253.527607C112.386435 253.527607 212.605678 250.322086 212.605678 250.322086M110.14511 248.865031L209.083596 238.082822M109.824921 241.871166L170.981073 229.923313M108.544164 234.294479L60.8359621 231.96319M110.14511 246.242331C109.250751 246.242331 43.5457413 234.58589 43.5457413 234.58589M109.824921 251.48773L2.24132492 240.705521M109.824921 261.687117L2.24132492 252.361963M109.504732 266.349693C106.302839 266.349693.320189274 268.389571.320189274 268.389571M109.504732 279.171779C108.223975 279.171779 4.48264984 274.217791 4.48264984 274.217791M108.864353 286.457055C107.263407 286.457055 7.36435331 279.171779 7.36435331 279.171779M108.864353 289.953988C107.263407 289.953988 4.80283912 295.782209 4.80283912 295.782209M108.864353 298.98773L6.40378549 301.610429M108.864353 311.226994C106.943218 311.226994 8.96529968 308.312883 8.96529968 308.312883M108.223975 318.51227L6.08359621 318.51227M108.544164 322.009202L12.1671924 335.122699M108.544164 331.334356C106.623028 331.334356 19.5315457 341.533742 19.5315457 341.533742M108.223975 343.865031C105.98265 343.865031 23.373817 345.322086 23.373817 345.322086M108.223975 351.441718L37.1419558 349.110429"/>
            </g>
          </g>
        </g>
        <path stroke="#092347" stroke-width="2.56" d="M100.539432,0 L100.539432,189.708589"/>
      </g>
    </g>
    <g mask="url(#box-trees-b)">
      <g transform="translate(156 53)">
        <g>
          <mask id="box-trees-f" fill="#fff">
            <use xlink:href="#box-trees-e"/>
          </mask>
          <use fill="#082248" opacity=".451" xlink:href="#box-trees-e"/>
          <g stroke="#082248" stroke-width=".5" mask="url(#box-trees-f)">
            <g transform="translate(-4.505 -112.485)">
              <path d="M54.8611987 175.575153L96.2082019 169.892638M55.1829653 163.044479L102.9653 164.355828M55.1829653 156.196319L108.757098 162.315951M55.1829653 151.533742L106.826498 147.162577M55.1829653 134.340491C55.9873817 134.340491 108.435331 137.546012 108.435331 137.546012M55.1829653 130.989264L107.952681 127.055215M55.1829653 126.763804C56.4700315 126.763804 106.826498 125.161043 106.826498 125.161043M55.3438486 124.432515L105.056782 119.041411M55.1829653 120.935583L85.9116719 114.961656M54.5394322 117.147239L30.5678233 115.981595M55.3438486 123.121166C54.8944661 123.121166 21.8801262 117.292945 21.8801262 117.292945M55.1829653 125.743865L1.12618297 120.352761M55.1829653 130.843558L1.12618297 126.180982M55.022082 133.174847C53.4132492 133.174847.160883281 134.194785.160883281 134.194785M55.022082 139.58589C54.3785489 139.58589 2.25236593 137.108896 2.25236593 137.108896M54.7003155 143.228528C53.8958991 143.228528 3.70031546 139.58589 3.70031546 139.58589M54.7003155 144.976994C53.8958991 144.976994 2.41324921 147.891104 2.41324921 147.891104M54.7003155 149.493865L3.21766562 150.805215M54.7003155 155.613497C53.7350158 155.613497 4.50473186 154.156442 4.50473186 154.156442M54.5394322 161.004601L6.11356467 167.56135M54.5394322 165.667178C53.5741325 165.667178 9.81388013 170.766871 9.81388013 170.766871M54.3785489 171.932515C53.2523659 171.932515 11.7444795 172.661043 11.7444795 172.661043M54.3785489 175.720859L18.6624606 174.555215"/>
            </g>
          </g>
        </g>
        <path stroke="#092347" stroke-width="1.28" d="M50.5173502,0 L50.5173502,94.8542945"/>
      </g>
    </g>
  </g>
</svg>
