<svg xmlns="http://www.w3.org/2000/svg" width="41" height="39" viewBox="0 0 41 39">
  <g fill="none" fill-rule="evenodd">
    <ellipse cx="31.749" cy="22.867" stroke="#000" stroke-width=".6" rx="8.244" ry="8.131"/>
    <ellipse cx="15.505" cy="23.699" stroke="#000" rx="15.005" ry="14.801"/>
    <rect width="9.915" height="7.286" x="21.729" y="12.562" fill="#FFF"/>
    <g stroke="#000" transform="rotate(133 19.298 10.68)">
      <path stroke-width=".6" d="M0.650454099,0.3 L19.0220644,0.3 L22.5163461,2.39397321 L19.0220644,4.48794643 L0.650454099,4.48794643 C0.607914976,4.35085373 0.558379401,4.17475139 0.508697549,3.96931266 C0.378153008,3.42949973 0.3,2.89088403 0.3,2.39397321 L0.3,2.39397321 C0.3,1.8970624 0.378153008,1.3584467 0.508697549,0.818633773 C0.558379401,0.613195037 0.607914976,0.437092699 0.650454099,0.3 Z"/>
      <path stroke-linecap="round" stroke-width=".5" d="M18.8945505,0.261885281 C18.8945505,0.261885281 19.3027171,1.40386347 19.3027171,2.18580163 C19.3027171,2.96773979 19.0309343,3.46944936 19.0309343,3.46944936"/>
    </g>
  </g>
</svg>
